/* XPM */
static const char * gemanx_inverse_xpm[] = {
"32 32 326 2",
"  	c None",
". 	c #5C4427",
"+ 	c #664B2B",
"@ 	c #745531",
"# 	c #836238",
"$ 	c #936E3F",
"% 	c #A37945",
"& 	c #B0834A",
"* 	c #BD8C50",
"= 	c #C79354",
"- 	c #CD9857",
"; 	c #503B22",
"> 	c #543E24",
", 	c #5F4628",
"' 	c #725430",
") 	c #89653A",
"! 	c #9E7643",
"~ 	c #AF824A",
"{ 	c #BA8A4E",
"] 	c #C18F51",
"^ 	c #C69253",
"/ 	c #C99555",
"( 	c #CD9856",
"_ 	c #D09A58",
": 	c #D19B58",
"< 	c #D39C5A",
"[ 	c #533D23",
"} 	c #594225",
"| 	c #6F522F",
"1 	c #926C3D",
"2 	c #B2844B",
"3 	c #C59253",
"4 	c #CE9956",
"5 	c #D59D59",
"6 	c #D8A05A",
"7 	c #D9A05A",
"8 	c #D79E59",
"9 	c #D49D59",
"0 	c #D29B59",
"a 	c #D19B59",
"b 	c #D29C59",
"c 	c #D49D5A",
"d 	c #D9A15C",
"e 	c #E7AB62",
"f 	c #584125",
"g 	c #644A2A",
"h 	c #B7884D",
"i 	c #D09A57",
"j 	c #E5AA61",
"k 	c #F4BA72",
"l 	c #FDC682",
"m 	c #FFCC8B",
"n 	c #FFCD8F",
"o 	c #FFCB8A",
"p 	c #FEC681",
"q 	c #F8BC74",
"r 	c #EDB065",
"s 	c #E0A65E",
"t 	c #DAA25C",
"u 	c #E0A55E",
"v 	c #F2B366",
"w 	c #FFC176",
"x 	c #614829",
"y 	c #A27844",
"z 	c #CB9756",
"A 	c #E6AA61",
"B 	c #FCC37B",
"C 	c #FFCD91",
"D 	c #FED097",
"E 	c #FFD197",
"F 	c #FFD297",
"G 	c #FFD499",
"H 	c #FFD599",
"I 	c #FFD298",
"J 	c #FECF96",
"K 	c #FFCD90",
"L 	c #FFC782",
"M 	c #FABC70",
"N 	c #F4B466",
"O 	c #FCBB6C",
"P 	c #FFC683",
"Q 	c #FECE92",
"R 	c #6E512E",
"S 	c #7D5C35",
"T 	c #AE824A",
"U 	c #D39D59",
"V 	c #F4B76C",
"W 	c #FFCB8C",
"X 	c #FFD096",
"Y 	c #FFD59B",
"Z 	c #E3C59E",
"` 	c #9D8C77",
" .	c #6A6257",
"..	c #4F4B45",
"+.	c #4A4641",
"@.	c #565048",
"#.	c #7D6F5D",
"$.	c #C4A886",
"%.	c #FFD79D",
"&.	c #FECD90",
"*.	c #FFC783",
"=.	c #FFC47D",
"-.	c #FECB8B",
";.	c #FED199",
">.	c #FED39C",
",.	c #7E5E35",
"'.	c #876439",
").	c #B0834B",
"!.	c #F8BB71",
"~.	c #D3B999",
"{.	c #444343",
"].	c #000000",
"^.	c #1A1A1B",
"/.	c #B19676",
"(.	c #FFD59A",
"_.	c #FECE94",
":.	c #FECB8D",
"<.	c #FECD91",
"[.	c #FED29A",
"}.	c #FED49E",
"|.	c #936D3E",
"1.	c #AD814A",
"2.	c #F5B86D",
"3.	c #FFD399",
"4.	c #958A7D",
"5.	c #000102",
"6.	c #010101",
"7.	c #806D56",
"8.	c #FECF95",
"9.	c #FED19B",
"0.	c #FED5A1",
"a.	c #FEDAAC",
"b.	c #A47945",
"c.	c #AE814A",
"d.	c #CA9555",
"e.	c #E8AC62",
"f.	c #FFCC8C",
"g.	c #9E9180",
"h.	c #6B583F",
"i.	c #CDA87A",
"j.	c #F5C992",
"k.	c #F4C891",
"l.	c #C4A175",
"m.	c #433729",
"n.	c #C19F76",
"o.	c #FED098",
"p.	c #FED5A3",
"q.	c #FFDEB5",
"r.	c #B6874D",
"s.	c #D59E5A",
"t.	c #FDC47D",
"u.	c #FED096",
"v.	c #E5C59D",
"w.	c #040607",
"x.	c #000100",
"y.	c #D7B080",
"z.	c #FFD39A",
"A.	c #FFD99E",
"B.	c #715E48",
"C.	c #413628",
"D.	c #FFD69B",
"E.	c #FED19A",
"F.	c #FED6A5",
"G.	c #FFE0BC",
"H.	c #FFE5C5",
"I.	c #C39052",
"J.	c #C69354",
"K.	c #CF9957",
"L.	c #E9AD63",
"M.	c #FFCE91",
"N.	c #FFD398",
"O.	c #655F56",
"P.	c #AD8E67",
"Q.	c #FFD198",
"R.	c #FFD89D",
"S.	c #2E2821",
"T.	c #342A1F",
"U.	c #FFD79C",
"V.	c #FED6A4",
"W.	c #FFE2BF",
"X.	c #FFE6C7",
"Y.	c #CC9756",
"Z.	c #CE9958",
"`.	c #D29C58",
" +	c #F8BD75",
".+	c #FDD4A0",
"++	c #0D0F12",
"@+	c #1A150F",
"#+	c #FFDB9F",
"$+	c #E9C08D",
"%+	c #30271D",
"&+	c #2C241A",
"*+	c #DAB282",
"=+	c #FED5A4",
"-+	c #FFE3C1",
";+	c #D19C59",
">+	c #D9A05B",
",+	c #FFC883",
"'+	c #D1B490",
")+	c #755F45",
"!+	c #FFE3C2",
"~+	c #FFE7C8",
"{+	c #D39C59",
"]+	c #E3A75E",
"^+	c #FFCC8D",
"/+	c #A59075",
"(+	c #A88964",
"_+	c #FFD098",
":+	c #FFE4C4",
"<+	c #D69F5A",
"[+	c #ECAF63",
"}+	c #907D67",
"|+	c #BC9B70",
"1+	c #E6C69D",
"2+	c #A49179",
"3+	c #A28F76",
"4+	c #A79278",
"5+	c #E1BE92",
"6+	c #FED7A6",
"7+	c #FFE5C6",
"8+	c #DBA25C",
"9+	c #DEA45E",
"0+	c #F4B568",
"a+	c #FFCD92",
"b+	c #8F7C65",
"c+	c #B8976E",
"d+	c #FAD19F",
"e+	c #111418",
"f+	c #DFB786",
"g+	c #FED8AA",
"h+	c #EEB064",
"i+	c #EDB064",
"j+	c #FCBC6D",
"k+	c #FECD92",
"l+	c #A38B6F",
"m+	c #9C805E",
"n+	c #FCD19C",
"o+	c #000001",
"p+	c #A18460",
"q+	c #FFDCB2",
"r+	c #FFE6C8",
"s+	c #FFC075",
"t+	c #FFBF72",
"u+	c #FFC278",
"v+	c #FECC90",
"w+	c #FED198",
"x+	c #CDAE87",
"y+	c #63523C",
"z+	c #B09069",
"A+	c #AB8D69",
"B+	c #000002",
"C+	c #9F825F",
"D+	c #FFD29A",
"E+	c #FECB8C",
"F+	c #FECA8A",
"G+	c #FEC987",
"H+	c #FFD59D",
"I+	c #030508",
"J+	c #080706",
"K+	c #FFD4A0",
"L+	c #040609",
"M+	c #FED5A2",
"N+	c #5F5242",
"O+	c #856F54",
"P+	c #FFD49F",
"Q+	c #9F8260",
"R+	c #FFDCB1",
"S+	c #FED39D",
"T+	c #FED29B",
"U+	c #E9C18F",
"V+	c #A78D6E",
"W+	c #FFD79B",
"X+	c #FFD59C",
"Y+	c #CFB89A",
"Z+	c #020304",
"`+	c #A08561",
" @	c #FFE4C3",
".@	c #FED4A0",
"+@	c #9B8262",
"@@	c #433D36",
"#@	c #AE9679",
"$@	c #DCBD96",
"%@	c #E1C19A",
"&@	c #CCB191",
"*@	c #928471",
"=@	c #363738",
"-@	c #D5B184",
";@	c #FFDFB9",
">@	c #FFDDB4",
",@	c #FEDCB2",
"'@	c #FFD69C",
")@	c #92795B",
"!@	c #A58A66",
"~@	c #FFE0B5",
"{@	c #FFE4C2",
"]@	c #FFE1BF",
"^@	c #FFDBB0",
"/@	c #FED4A1",
"(@	c #FFD39B",
"_@	c #D8B282",
":@	c #3E3326",
"<@	c #100D0A",
"[@	c #836C4F",
"}@	c #FED39E",
"|@	c #FFE1BE",
"1@	c #FFD9AB",
"2@	c #FED39F",
"3@	c #EFC48F",
"4@	c #725E44",
"5@	c #5D4C38",
"6@	c #5C4C37",
"7@	c #6E5A42",
"8@	c #957A59",
"9@	c #D5AE80",
"0@	c #FFDCA2",
"a@	c #FFD7A6",
"b@	c #FFE1BD",
"c@	c #FFE5C7",
"d@	c #FFD299",
"e@	c #FFD49A",
"f@	c #FED8A9",
"g@	c #FFE0B9",
"h@	c #FFE2BE",
"i@	c #FFE0BB",
"j@	c #FFE0BA",
"k@	c #FFE1BC",
"                                                                ",
"                      . + @ # $ % & * = -                       ",
"                ; > , ' ) ! ~ { ] ^ / ( _ : <                   ",
"              [ } | 1 2 3 4 5 6 7 8 9 0 a b c d e               ",
"            f g ) h i j k l m n n o p q r s t u v w             ",
"          x ' y z A B C D E F G H G I J K L M N O P Q           ",
"        R S T U V W X Y Z `  ...+.@.#.$.%.X &.*.=.-.;.>.        ",
"      ,.'.).9 !.C F ~.{.].].].].].].].].^./.(._.:.<.[.}.        ",
"      |.1._ 2.C 3.4.5.].6.].].].].].6.].6.].7.(.8.8.9.0.a.      ",
"    b.c.d.e.f.F g.].6.6.].h.i.j.k.l.m.].6.6.].n.o.D 9.p.q.      ",
"    r.3 s.t.u.v.w.6.6.x.y.z.D D D D A.B.].].6.C.D.D E.F.G.H.    ",
"  I.J.K.L.M.N.O.].].].P.Q.D D D D D D R.S.6.6.T.U.D E.V.W.X.    ",
"  Y.Z.`. +D .+++6.].@+#+D D D D D D D D $+%+&+*+D D ;.=+-+X.    ",
"  _ ;+>+,+o.'+].].].)+I D D D D D D D D D U.R.D D o.o.p.!+~+X.  ",
"  b {+]+^+Q./+].].].(+D D D D D _+E E E E E E o.D D o.V.:+~+X.  ",
"  9 <+[+C E }+].].].|+D D D D E 1+2+3+3+3+3+4+5+I D o.6+7+~+X.  ",
"  8+9+0+a+E b+].].].c+D D D D d+e+].].].].].].].f+o.o.g+X.X.X.  ",
"  h+i+j+k+Q.l+].].].m+D D D D n+o+].].].].6.].].p+D ;.q+r+X.X.  ",
"  s+t+u+v+w+x+].].6.y+3.D D D D k.c+z+z+A+B+].].C+o.D+G.~+X.    ",
"  E+F+G+<.D H+I+6.].J+R.D D D D D D D D K+L+].].C+w+M+H.~+X.    ",
"    ;.8.8.D G N+].].].O+G D D D D D D D P+L+].].Q+[.R+~+X.X.    ",
"    S+>.T+;.o.U+].6.6.].V+W+E D D o.E X+Y+Z+].].`+M+ @~+X.      ",
"    V.=+.@>.[.D++@].6.6.].@@#@$@%@&@*@=@].].6.].-@;@r+X.X.      ",
"      >@,@6+S+T+'@)@].6.].].].].].].].].].].].!@~@~+X.X.        ",
"        {@]@^@/@T+(@_@:@].].6.].].6.].].<@[@}@>@r+X.X.X.        ",
"          X.7+|@1@2@[.%.3@p+4@5@6@7@8@9@0@a@b@r+X.X.X.          ",
"          X.~+X.c@W.R+F.S+E.d@e@e@(@}@f@g@7+~+X.X.X.            ",
"              X.~+~+X.X.{@h@i@j@k@-+H.r+~+~+X.X.X.              ",
"                X.X.X.X.~+~+~+~+~+~+~+X.X.X.X.                  ",
"                    X.X.X.X.X.X.X.X.X.X.X.                      ",
"                            X.X.X.                              ",
"                                                                "};
